<svg xmlns="http://www.w3.org/2000/svg" width="255.99" height="255.99" viewBox="0 0 1050 1050">
  <metadata><?xpacket begin="﻿" id="W5M0MpCehiHzreSzNTczkc9d"?>
<x:xmpmeta xmlns:x="adobe:ns:meta/" x:xmptk="Adobe XMP Core 5.6-c138 79.159824, 2016/09/14-01:09:01        ">
   <rdf:RDF xmlns:rdf="http://www.w3.org/1999/02/22-rdf-syntax-ns#">
      <rdf:Description rdf:about=""/>
   </rdf:RDF>
</x:xmpmeta>
                                                                                                    
                                                                                                    
                                                                                                    
                                                                                                    
                                                                                                    
                                                                                                    
                                                                                                    
                                                                                                    
                                                                                                    
                                                                                                    
                                                                                                    
                                                                                                    
                                                                                                    
                                                                                                    
                                                                                                    
                                                                                                    
                                                                                                    
                                                                                                    
                                                                                                    
                                                                                                    
                           
<?xpacket end="w"?></metadata>
<defs>
    <style>
      .cls-1 {
        fill: #dfeafb;
      }

      .cls-1, .cls-2, .cls-3 {
        fill-rule: evenodd;
      }

      .cls-2 {
        fill: #c3d2da;
      }

      .cls-3 {
        fill: #8fa3bb;
      }
    </style>
  </defs>
  <path id="moon" class="cls-1" d="M360.554,470.372C432.111,526.48,521.424,562,661.353,546.2c67.786-7.656,183.133-32.828,216.969-98.775,27.188-52.989,65.79-142.9,43.389-228.19-13.9-52.92,123.819,115.931,126.859,289.282,2.11,119.662-62.4,310-253.029,418.212C632.481,1019.29,197.806,1036.5,69.1,753.934-25.34,546.6-6.328,377.587,36.333,247.651,69.931,145.321,243.965,7.1,193.078,83.984c-36.85,55.676,3.6,155,21.385,199.916C237.452,341.951,299.786,422.723,360.554,470.372Z"/>
  <path id="legs" class="cls-2" d="M296.963,655.074c0,43.542-6.322,89.983-3.331,133.509s71.788,47.8,56.016,1.234c-16.575-48.939-13.692-100.159-13.692-142.19S296.963,611.533,296.963,655.074Zm474.294,0c0,43.542,6.321,89.983,3.33,133.509s-71.788,47.8-56.015,1.234c16.574-48.939,13.691-100.159,13.691-142.19S771.257,611.533,771.257,655.074Z"/>
  <path id="wool" class="cls-3" d="M224.465,357.682c-92.265,13.954-80.223,144.487,8.788,149.9C156.007,573.033,238.264,654,288.775,619.566c-34.059,74.008,35.293,133.6,93.036,80.253C369.383,769.3,470.3,808.134,506.839,737.425c29.635,68.15,138.089,42.077,160.075-8.928,46.749,65.113,119.987-3.253,96.952-66.931,88.687,35.03,127.773-45.655,94.993-99.666,65.653-20.2,56.684-144.1-3.864-149.559,43.064-54.952-2.067-166.366-61.3-125.43,47.2-51.883-43.7-118.244-85.589-95.348,1.049-98.786-174.581-126.255-182.555-31.253-43.573-45.069-138.581-36.635-142.035,38.854C318.446,148.915,228.864,241.8,256.078,306.369,221.016,294.081,205.053,316.561,224.465,357.682Z"/>
  <path id="head" class="cls-2" d="M467.278,776.742c-18.7-31.053-55.653-85.506-42.527-142.3,22.474-97.235,197.559-97.235,220.033,0,13.126,56.792-23.827,111.245-42.527,142.3C572.031,826.934,497.5,826.934,467.278,776.742ZM414.328,599c-18.81,11.688-44.914,39.765-39.147,81.194,2.243,16.119,38.323-27.569,50.973-49C455.388,581.667,433.139,587.31,414.328,599Zm239.563,0c18.81,11.688,44.914,39.765,39.148,81.194-2.244,16.119-38.324-27.569-50.974-49C612.831,581.667,635.08,587.31,653.891,599Z"/>
  <path id="top_fluff" data-name="top fluff" class="cls-3" d="M439.285,604.953c-6.105,46.992,53.767,42.158,51.551,2.3,5.8,49.406,73.712,37.114,77.941,9.68,13.266,25.265,83.907,30.2,72.082-17.649,22.9,24.153,82.85-36.45,12-64.019-26.128-10.167-48.879-39.422-81.867-24.891-56.775,25.009-127.078-13.687-130.183,24.6C395.27,549.383,366.664,584,394.672,581.176,375.266,616.625,415.871,648.641,439.285,604.953Z"/>
</svg>
